# xmcd CD database file
#
# Track frame offsets:
#	150
#	10253
#	23572
#	40318
#	55642
#	68846
#	83431
#	96077
#	109641
#	124242
#	138424
#	154112
#	169376
#	184532
#	210989
#	225277
#	238970
#	253315
#	266764
#	281962
#	302124
#	313855
#
# Disc length: 4391 seconds
#
# Revision: 0
# Processed by: cddbd v1.5.2PL0 Copyright (c) Steve Scherf et al.
# Submitted via: CDex 1.51
#
DISCID=2e112516
DTITLE=Billie Holiday - The Great American Songbook - cd 2
DYEAR=2007
DGENRE=Jazz
TTITLE0=Too Marvellous For Words
TTITLE1=Love For Sale
TTITLE2=Stormy Weather
TTITLE3=Tenderly
TTITLE4=East Of the Sun (West Of the Moon)
TTITLE5=I Can't Face the Music
TTITLE6=I Thought About You
TTITLE7=Moonglow
TTITLE8=I Cover the Waterfront
TTITLE9=Georgia On My Mind
TTITLE10=You Turned the Tables On Me
TTITLE11=Lover Man
TTITLE12=Weep No More
TTITLE13=I've Got a Right To Sing the Blues
TTITLE14=God Bless the Child
TTITLE15=Detour Ahead
TTITLE16=Good Morning Heartache
TTITLE17=I Loves You Porgy
TTITLE18=Don't Explain
TTITLE19=(I Don't Stand) A Ghost Of a Chance (With You)
TTITLE20=Be Fair To Me Baby
TTITLE21=No Good Man
EXTD=YEAR: 2007
EXTT0=
EXTT1=
EXTT2=
EXTT3=
EXTT4=
EXTT5=
EXTT6=
EXTT7=
EXTT8=
EXTT9=
EXTT10=
EXTT11=
EXTT12=
EXTT13=
EXTT14=
EXTT15=
EXTT16=
EXTT17=
EXTT18=
EXTT19=
EXTT20=
EXTT21=
PLAYORDER=
